<svg xmlns="http://www.w3.org/2000/svg" width="256" height="256" viewBox="0 0 256 256" fill="none">
<path d="M216.856 45.0966C200.285 37.3433 182.566 31.7085 164.042 28.5C161.767 32.6132 159.109 38.1455 157.276 42.5464C137.584 39.585 118.073 39.585 98.743 42.5464C96.9108 38.1455 94.1926 32.6132 91.8972 28.5C73.3526 31.7085 55.6134 37.364 39.0421 45.1377C5.61752 95.6465 -3.44332 144.901 1.08711 193.456C23.256 210.011 44.7404 220.068 65.8621 226.649C71.0772 219.471 75.7284 211.841 79.7352 203.8C72.104 200.901 64.795 197.322 57.8888 193.168C59.721 191.811 61.5131 190.391 63.2446 188.931C105.367 208.633 151.135 208.633 192.755 188.931C194.506 190.391 196.298 191.811 198.11 193.168C191.184 197.343 183.855 200.921 176.224 203.821C180.23 211.841 184.862 219.492 190.097 226.669C211.239 220.088 232.743 210.032 254.912 193.456C260.228 137.168 245.831 88.3662 216.856 45.0966ZM85.4739 163.595C72.829 163.595 62.4592 151.79 62.4592 137.415C62.4592 123.04 72.6076 111.215 85.4739 111.215C98.3405 111.215 108.71 123.019 108.489 137.415C108.509 151.79 98.3405 163.595 85.4739 163.595ZM170.525 163.595C157.88 163.595 147.511 151.79 147.511 137.415C147.511 123.04 157.659 111.215 170.525 111.215C183.392 111.215 193.761 123.019 193.54 137.415C193.54 151.79 183.392 163.595 170.525 163.595Z" fill="#6AD7E5"/>
<path fill-rule="evenodd" clip-rule="evenodd" d="M135.288 183.192C135.658 186.746 135.699 190.326 135.413 193.888C134.553 195.505 132.874 195.677 131.428 196.333C130.443 196.178 129.514 195.775 128.728 195.161C127.942 194.547 127.325 193.743 126.936 192.825C126.721 188.789 126.828 184.743 127.256 180.724L135.288 183.192Z" fill="white"/>
<path fill-rule="evenodd" clip-rule="evenodd" d="M117.92 182.825C115.272 189.247 119.397 202.099 126.592 192.622C126.377 188.586 126.484 184.539 126.912 180.521L117.92 182.825Z" fill="white"/>
<path d="M138.521 185.005C136.777 184.868 135.076 184.393 133.513 183.606C131.829 182.77 130.003 182.256 128.13 182.091H128.06C126.143 182.092 124.248 182.497 122.497 183.278C118.661 184.606 114.31 186.106 111.872 181.716C111.282 180.61 110.982 179.373 111.001 178.12C111.02 176.866 111.358 175.639 111.982 174.552C112.64 173.272 113.604 172.174 114.788 171.356C115.972 170.538 117.341 170.026 118.771 169.864L134.997 169.177L135.122 169.231C139.161 170.935 143.763 174.052 144.552 177.692C144.658 178.571 144.584 179.463 144.335 180.313C144.085 181.162 143.666 181.952 143.102 182.635C142.538 183.317 141.841 183.878 141.053 184.283C140.266 184.687 139.404 184.928 138.521 184.989V185.005ZM128.185 180.896C130.204 181.061 132.173 181.607 133.99 182.505C137.06 183.794 139.458 184.81 141.966 182.114C142.526 181.599 142.946 180.951 143.189 180.23C143.432 179.509 143.49 178.738 143.357 177.989C142.677 174.864 138.341 171.981 134.763 170.458L118.857 171.091C117.636 171.245 116.47 171.692 115.461 172.396C114.451 173.099 113.627 174.038 113.06 175.13C112.534 176.037 112.248 177.063 112.227 178.111C112.207 179.159 112.453 180.195 112.943 181.122C114.88 184.63 118.411 183.419 122.083 182.138C124.003 181.287 126.085 180.863 128.185 180.896Z" fill="#231F20"/>
<path fill-rule="evenodd" clip-rule="evenodd" d="M118.209 170.193C117.842 161.638 134.162 160.583 136.115 167.732C138.069 174.88 119.037 176.544 118.233 170.201L118.209 170.193Z" fill="black"/>
<path fill-rule="evenodd" clip-rule="evenodd" d="M138.069 139.234C145.067 180.106 211.623 169.343 202.063 128.087C193.438 91.0793 135.74 101.322 138.069 139.234Z" fill="white"/>
<path fill-rule="evenodd" clip-rule="evenodd" d="M49.7641 146.419C58.9037 182.063 116.101 172.895 113.94 137.189C111.357 94.3726 41.0094 102.636 49.7517 146.419" fill="white"/>
<path d="M97.4023 136.68C100.759 136.68 103.48 133.735 103.48 130.102C103.48 126.469 100.759 123.523 97.4023 123.523C94.0455 123.523 91.3242 126.469 91.3242 130.102C91.3242 133.735 94.0455 136.68 97.4023 136.68Z" fill="black"/>
<path d="M100.168 133.258C100.958 133.258 101.598 132.509 101.598 131.586C101.598 130.663 100.958 129.914 100.168 129.914C99.3784 129.914 98.7383 130.663 98.7383 131.586C98.7383 132.509 99.3784 133.258 100.168 133.258Z" fill="white"/>
<path d="M151.977 138.156C155.277 138.156 157.953 135.211 157.953 131.578C157.953 127.945 155.277 125 151.977 125C148.676 125 146 127.945 146 131.578C146 135.211 148.676 138.156 151.977 138.156Z" fill="black"/>
<path d="M151.027 131.617C151.804 131.617 152.434 130.869 152.434 129.945C152.434 129.022 151.804 128.273 151.027 128.273C150.251 128.273 149.621 129.022 149.621 129.945C149.621 130.869 150.251 131.617 151.027 131.617Z" fill="white"/>
<path fill-rule="evenodd" clip-rule="evenodd" d="M112.18 43.9837C105.281 19.2597 141.663 18.6511 140.936 42.305L112.18 43.9837Z" fill="#6AD7E5"/>
<path fill-rule="evenodd" clip-rule="evenodd" d="M120.12 40.3663C119.903 36.6856 120.658 33.4295 124.897 33.1844C128.839 32.9463 130.306 36.0678 130.516 39.7526L120.12 40.3663Z" fill="black"/>
</svg>